<svg width="16" height="18" viewBox="0 0 16 18" fill="none" xmlns="http://www.w3.org/2000/svg">
<path d="M10 1L10.7071 0.292892C10.5196 0.105356 10.2652 -4.04996e-07 10 -3.93403e-07L10 1ZM15 6L16 6C16 5.73478 15.8946 5.48043 15.7071 5.29289L15 6ZM13 16L3 16L3 18L13 18L13 16ZM2 15L2 3L6.39738e-07 3L9.13911e-08 15L2 15ZM3 2L10 2L10 -3.93403e-07L3 -8.74228e-08L3 2ZM16 15L16 6L14 6L14 15L16 15ZM9.29289 1.70711L14.2929 6.70711L15.7071 5.29289L10.7071 0.292892L9.29289 1.70711ZM9 1L9 5L11 5L11 1L9 1ZM11 7L15 7L15 5L11 5L11 7ZM13 18C14.6569 18 16 16.6569 16 15L14 15C14 15.5523 13.5523 16 13 16L13 18ZM3 16C2.44772 16 2 15.5523 2 15L9.13911e-08 15C4.46052e-08 16.6569 1.34315 18 3 18L3 16ZM9 5C9 6.10457 9.89543 7 11 7L11 5L9 5ZM2 3C2 2.44771 2.44772 2 3 2L3 -8.74228e-08C1.34315 -1.49994e-08 6.86524e-07 1.34315 6.39738e-07 3L2 3Z" fill="black"/>
<path d="M5 4C4.44772 4 4 4.44772 4 5C4 5.55228 4.44772 6 5 6L5 4ZM6 6C6.55228 6 7 5.55228 7 5C7 4.44772 6.55228 4 6 4L6 6ZM5 6L6 6L6 4L5 4L5 6Z" fill="black"/>
<path d="M5 8C4.44772 8 4 8.44772 4 9C4 9.55228 4.44772 10 5 10L5 8ZM11 10C11.5523 10 12 9.55229 12 9C12 8.44772 11.5523 8 11 8L11 10ZM5 10L11 10L11 8L5 8L5 10Z" fill="black"/>
<path d="M5 12C4.44772 12 4 12.4477 4 13C4 13.5523 4.44772 14 5 14L5 12ZM11 14C11.5523 14 12 13.5523 12 13C12 12.4477 11.5523 12 11 12L11 14ZM5 14L11 14L11 12L5 12L5 14Z" fill="black"/>
</svg>
