<svg width="20" height="20" viewBox="0 0 20 20" fill="none" xmlns="http://www.w3.org/2000/svg">
<path d="M1 8V17C1 18.1046 1.89543 19 3 19H17C18.1046 19 19 18.1046 19 17V8M1 8L9.4453 13.6302C9.7812 13.8541 10.2188 13.8541 10.5547 13.6302L19 8M1 8L4 5M19 8L16 5" stroke="#BEC4C6" stroke-width="1.5" stroke-linejoin="round"/>
<path d="M4 10V3C4 1.89543 4.89543 1 6 1H14C15.1046 1 16 1.89543 16 3V10" stroke="#BEC4C6" stroke-width="1.5"/>
<path d="M6.5 3.25C6.08579 3.25 5.75 3.58579 5.75 4C5.75 4.41421 6.08579 4.75 6.5 4.75V3.25ZM13 4.75C13.4142 4.75 13.75 4.41421 13.75 4C13.75 3.58579 13.4142 3.25 13 3.25V4.75ZM6.5 4.75H13V3.25H6.5V4.75Z" fill="#BEC4C6"/>
<path d="M6.5 6.25C6.08579 6.25 5.75 6.58579 5.75 7C5.75 7.41421 6.08579 7.75 6.5 7.75V6.25ZM10 7.75C10.4142 7.75 10.75 7.41421 10.75 7C10.75 6.58579 10.4142 6.25 10 6.25V7.75ZM6.5 7.75H10V6.25H6.5V7.75Z" fill="#BEC4C6"/>
</svg>
