<svg width="18" height="16" viewBox="0 0 18 16" fill="none" xmlns="http://www.w3.org/2000/svg">
<path d="M1 9V13C1 14.1046 1.89543 15 3 15H10M1 9V3C1 1.89543 1.89543 1 3 1H9H15C16.1046 1 17 1.89543 17 3V13V13C17 14.1046 16.1046 15 15 15H14M1 9L2.57438 6.75089C3.44348 5.50932 5.32393 5.64785 6.00169 7.00339L7.25 9.5M10 15H11H14M10 15L7.25 9.5M14 15L11.1807 9.36137C10.588 8.17597 9.02714 7.88441 8.04649 8.77592L7.25 9.5" stroke="black" stroke-width="2"/>
<circle cx="12.5" cy="5.5" r="1.5" fill="black"/>
</svg>
