<svg width="256" height="96" viewBox="0 0 256 96" fill="none" xmlns="http://www.w3.org/2000/svg">
<path d="M49.1361 2.01203C41.7561 2.01203 33.1528 10.9454 23.3261 28.812C25.7994 19.9054 27.0361 14.0087 27.0361 11.122C27.1354 8.74383 26.3558 6.41228 24.8461 4.57204C24.0601 3.70764 23.0912 3.02934 22.0101 2.5865C20.9289 2.14366 19.7626 1.94741 18.5961 2.01203C16.933 2.01623 15.2768 2.22787 13.6661 2.64204L8.3861 19.952L2.7161 38.552L2.6361 38.802C1.96922 40.9907 1.82425 43.3051 2.21278 45.5598C2.60131 47.8146 3.51255 49.947 4.87348 51.7862C6.23442 53.6254 8.00721 55.1203 10.0498 56.151C12.0925 57.1818 14.3481 57.7199 16.6361 57.722C18.4841 51.1186 20.9413 44.7011 23.9761 38.552C25.1161 36.192 26.3561 33.792 27.6861 31.332C32.8961 21.802 36.9961 17.062 40.0061 17.062C40.8961 17.062 41.7761 17.722 42.7061 19.062C43.2097 19.9626 43.9504 20.7081 44.8477 21.2175C45.745 21.727 46.7647 21.981 47.7961 21.952C49.0956 21.9405 50.3714 21.6019 51.5056 20.9675C52.6398 20.3331 53.5961 19.4233 54.2861 18.322C56.0125 15.9271 56.9302 13.0442 56.9061 10.092C56.9672 9.00437 56.8005 7.91593 56.4164 6.89647C56.0324 5.87702 55.4396 4.94904 54.6761 4.17203C53.9439 3.45998 53.0764 2.90195 52.1249 2.53095C51.1733 2.15995 50.157 1.9835 49.1361 2.01203V2.01203Z" fill="#EB5E55"/>
<path d="M97.6726 22.98C96.0465 26.3356 94.2337 29.5974 92.2426 32.75C86.8026 41.37 82.5326 45.67 79.4826 45.67C78.2126 45.67 77.5726 44.99 77.5726 43.58C77.5726 43.1 78.4726 39.88 80.2626 33.95L84.4026 20.43L85.1726 17.91C85.8832 15.7959 86.2807 13.5892 86.3526 11.36C86.3143 10.1409 86.0287 8.94223 85.513 7.83688C84.9973 6.73154 84.2623 5.74256 83.3526 4.93C81.3526 2.97667 78.2292 2 73.9826 2C72.7892 2.00106 71.597 2.07453 70.4126 2.22L59.4126 38.27C57.7426 43.6 56.9226 47.08 56.9226 48.68C56.8504 51.2318 57.7148 53.7218 59.3526 55.68C60.9626 57.68 63.3526 58.59 66.6126 58.59C68.9367 58.5872 71.242 58.1742 73.4226 57.37C81.2226 54.55 88.7192 46.83 95.9126 34.21L88.0326 59.78L82.9126 76.54C81.6426 80.7 81.0226 83.54 81.0226 84.92C81.0063 86.1023 81.2351 87.2751 81.6947 88.3646C82.1542 89.4541 82.8345 90.4365 83.6926 91.25C85.4859 93.0167 88.4859 93.9033 92.6926 93.91C94.1753 93.9173 95.6563 93.8103 97.1226 93.59L102.203 76.92L103.273 73.43L124.853 2.92H105.293C103.348 9.81806 100.798 16.5308 97.6726 22.98V22.98Z" fill="#EB5E55"/>
<path d="M171.743 3.24747L169.453 11.3875C169.113 8.22747 168.123 5.87747 166.533 4.32747C165.633 3.52103 164.581 2.90153 163.439 2.50497C162.298 2.10841 161.089 1.9427 159.883 2.01747C150.763 2.01747 142.643 6.51414 135.523 15.5075C128.403 24.5008 124.846 34.0275 124.853 44.0875C124.853 49.1475 126.073 52.8875 128.553 55.2775C129.651 56.4174 130.968 57.3238 132.425 57.9424C133.883 58.561 135.45 58.8791 137.033 58.8775C137.332 58.8974 137.633 58.8974 137.933 58.8775C144.933 58.5175 152.003 53.6475 159.243 44.3275C158.955 45.5608 158.801 46.8213 158.783 48.0875C158.783 51.8775 159.883 54.6575 162.113 56.3875C164.501 58.1441 167.409 59.049 170.373 58.9575C171.437 58.9579 172.5 58.8777 173.553 58.7175L177.853 44.7175L178.013 44.1575L178.153 43.6475L178.393 42.8275L182.033 30.9875L190.493 3.33747L171.743 3.24747ZM162.793 28.6875C160.319 35.1808 157.783 39.7708 155.183 42.4575C152.593 45.1275 150.293 46.4575 148.343 46.4575C147.793 46.49 147.244 46.3812 146.749 46.1414C146.254 45.9015 145.828 45.5387 145.513 45.0875C144.791 43.8842 144.463 42.4861 144.573 41.0875C144.573 37.0875 145.993 31.4975 148.873 24.4075C149.273 23.4075 149.693 22.4075 150.133 21.4075C153.833 12.8608 157.893 8.59081 162.313 8.59747C162.915 8.55889 163.518 8.67128 164.066 8.92447C164.615 9.17766 165.091 9.56365 165.453 10.0475C166.232 11.3683 166.582 12.8991 166.453 14.4275C166.453 17.1775 165.453 21.4275 163.283 27.1875C163.183 27.7475 162.983 28.2075 162.793 28.6875Z" fill="#EB5E55"/>
<path d="M250.828 4.54145C248.844 2.86139 246.317 1.9588 243.718 2.00144C234.991 2.00144 226.261 8.54144 217.528 21.6214C216.098 23.7314 214.668 26.0214 213.268 28.4814C214.108 25.8214 214.788 23.3914 215.358 21.2014C216.231 18.0403 216.734 14.7886 216.858 11.5114C216.92 10.2114 216.693 8.91367 216.193 7.71187C215.693 6.51006 214.933 5.43408 213.968 4.56145C212.058 2.87145 209.368 2.00144 205.968 2.00144C204.789 1.99878 203.612 2.08906 202.448 2.27145L198.448 15.2714L198.008 16.7014L194.548 27.9514L191.138 39.0914C190.47 41.2459 190.318 43.5272 190.694 45.7513C191.07 47.9753 191.964 50.0797 193.303 51.8948C194.642 53.7098 196.389 55.1847 198.403 56.2003C200.417 57.2159 202.642 57.7438 204.898 57.7414L205.508 55.4514L206.128 53.1014C209.451 44.848 213.396 36.8584 217.928 29.2014C219.398 26.6314 220.778 24.4014 222.128 22.5114C225.648 17.4781 228.648 14.9648 231.128 14.9714C232.578 14.9714 233.278 15.6314 233.278 16.9714C233.085 18.4013 232.75 19.8083 232.278 21.1714L231.638 23.2614L231.308 24.2614L226.108 41.0414C224.838 45.2014 224.218 47.9914 224.218 49.4214C224.203 50.6036 224.432 51.7761 224.891 52.8653C225.351 53.9546 226.031 54.9372 226.888 55.7514C228.674 57.5248 231.691 58.4081 235.938 58.4014C237.417 58.4083 238.895 58.3014 240.358 58.0814L245.438 41.4214L246.508 37.9214L251.008 23.2314L252.578 18.1214C253.319 15.9207 253.759 13.6301 253.888 11.3114C253.935 10.0233 253.684 8.74154 253.153 7.56689C252.622 6.39224 251.826 5.35666 250.828 4.54145V4.54145Z" fill="#EB5E55"/>
</svg>
