<?xml version="1.0" encoding="UTF-8"?><svg id="Layer_1" xmlns="http://www.w3.org/2000/svg" xmlns:xlink="http://www.w3.org/1999/xlink" viewBox="0 0 657.97 259.74"><defs><style>.cls-1{fill:url(#linear-gradient);}.cls-2{fill:#6d597a;}.cls-3{fill:url(#linear-gradient-3);}.cls-4{fill:url(#linear-gradient-4);}.cls-5{fill:url(#linear-gradient-2);}</style><linearGradient id="linear-gradient" x1="30.41" y1="90.37" x2="627.03" y2="90.37" gradientTransform="matrix(1, 0, 0, 1, 0, 0)" gradientUnits="userSpaceOnUse"><stop offset="0" stop-color="#eb5e55"/><stop offset="1" stop-color="#4056f4"/></linearGradient><linearGradient id="linear-gradient-2" y1="87.11" y2="87.11" xlink:href="#linear-gradient"/><linearGradient id="linear-gradient-3" y1="87.83" y2="87.83" xlink:href="#linear-gradient"/><linearGradient id="linear-gradient-4" y1="132.21" y2="132.21" xlink:href="#linear-gradient"/></defs><path class="cls-2" d="M425.72,47.68c-.76-7.06-3-12.32-6.51-15.78-3.51-3.46-8.54-5.16-14.88-5.16-20.4,0-38.55,10.05-54.46,30.15-15.91,20.1-23.86,41.43-23.86,64,0,11.33,2.75,19.67,8.26,25,5.53,5.39,11.82,8,19,8,.67,.01,1.34-.02,2-.09,15.55-.8,31.43-11.64,47.63-32.53-.62,2.73-.96,5.51-1,8.31,0,8.5,2.47,14.7,7.46,18.56s11.1,5.86,18.43,5.86c2.38,0,4.75-.18,7.1-.53l9.62-31.47,.36-1.25,.31-1.13,.54-1.84,8.13-26.47,18.92-61.83h-41.92l-5.13,18.2Zm-13.72,35.56c-.34,1.02-.75,2.05-1.15,3.13-5.53,14.51-11.2,24.77-17,30.78-5.79,6-10.92,9-15.28,9-2.5,.17-4.92-.96-6.38-3-1.44-2-2.11-4.95-2.11-8.86,0-9,3.19-21.43,9.62-37.29,.89-2.16,1.84-4.41,2.83-6.7,8.27-19.1,17.34-28.64,27.23-28.62,2.73-.17,5.36,1.04,7,3.23,1.57,2.11,2.34,5.39,2.34,9.8,0,6.15-2.34,15.68-7.1,28.53Z"/><path class="cls-1" d="M425.72,47.68c-.76-7.06-3-12.32-6.51-15.78-3.51-3.46-8.54-5.16-14.88-5.16-20.4,0-38.55,10.05-54.46,30.15-15.91,20.1-23.86,41.43-23.86,64,0,11.33,2.75,19.67,8.26,25,5.53,5.39,11.82,8,19,8,.67,.01,1.34-.02,2-.09,15.55-.8,31.43-11.64,47.63-32.53-.62,2.73-.96,5.51-1,8.31,0,8.5,2.47,14.7,7.46,18.56s11.1,5.86,18.43,5.86c2.38,0,4.75-.18,7.1-.53l9.62-31.47,.36-1.25,.31-1.13,.54-1.84,8.13-26.47,18.92-61.83h-41.92l-5.13,18.2Zm-13.72,35.56c-.34,1.02-.75,2.05-1.15,3.13-5.53,14.51-11.2,24.77-17,30.78-5.79,6-10.92,9-15.28,9-2.5,.17-4.92-.96-6.38-3-1.44-2-2.11-4.95-2.11-8.86,0-9,3.19-21.43,9.62-37.29,.89-2.16,1.84-4.41,2.83-6.7,8.27-19.1,17.34-28.64,27.23-28.62,2.73-.17,5.36,1.04,7,3.23,1.57,2.11,2.34,5.39,2.34,9.8,0,6.15-2.34,15.68-7.1,28.53Z"/><path class="cls-2" d="M141.24,24.8c-16.49,0-35.73,19.97-57.7,59.91,5.48-19.91,8.22-33.09,8.22-39.55,0-5.93-1.61-10.83-4.89-14.65-3.28-3.82-8-5.71-14-5.71-3.71,0-7.41,.47-11,1.4l-11.81,38.73-12.73,41.64-.16,.55c-5.28,17.29,4.46,35.59,21.75,40.87,3.1,.95,6.32,1.43,9.57,1.43,4.13-14.76,9.62-29.11,16.41-42.85,2.55-5.28,5.31-10.67,8.3-16.16,11.64-21.3,20.81-31.9,27.55-31.9,2,0,4,1.48,6,4.54,2.35,4.04,6.74,6.46,11.41,6.29,5.76,0,10.61-2.7,14.52-8.14,3.85-5.35,5.9-11.79,5.84-18.38,0-5.66-1.66-10.06-5-13.25-3.29-3.18-7.71-4.9-12.28-4.77Z"/><path class="cls-5" d="M141.24,24.8c-16.49,0-35.73,19.97-57.7,59.91,5.48-19.91,8.22-33.09,8.22-39.55,0-5.93-1.61-10.83-4.89-14.65-3.28-3.82-8-5.71-14-5.71-3.71,0-7.41,.47-11,1.4l-11.81,38.73-12.73,41.64-.16,.55c-5.28,17.29,4.46,35.59,21.75,40.87,3.1,.95,6.32,1.43,9.57,1.43,4.13-14.76,9.62-29.11,16.41-42.85,2.55-5.28,5.31-10.67,8.3-16.16,11.64-21.3,20.81-31.9,27.55-31.9,2,0,4,1.48,6,4.54,2.35,4.04,6.74,6.46,11.41,6.29,5.76,0,10.61-2.7,14.52-8.14,3.85-5.35,5.9-11.79,5.84-18.38,0-5.66-1.66-10.06-5-13.25-3.29-3.18-7.71-4.9-12.28-4.77Z"/><path class="cls-2" d="M615.41,30.47c-4.43-3.74-10.06-5.76-15.86-5.67-19.5,0-39.02,14.62-58.55,43.86-3.19,4.72-6.37,9.83-9.53,15.33,1.89-5.93,3.42-11.37,4.68-16.27,2.24-8.99,3.36-16.21,3.37-21.66,0-6.56-2.16-11.73-6.47-15.55s-10.3-5.71-18-5.71c-2.63-.01-5.26,.18-7.86,.59l-8.9,29.16-1,3.19-7.73,25.17-7.56,24.89c-5.2,17.01,4.37,35.01,21.37,40.21,3.05,.93,6.22,1.41,9.41,1.41l1.35-5.13,1.39-5.25c5.49-14.47,14.29-32.28,26.38-53.44,3.28-5.75,6.38-10.74,9.39-15,7.87-11.23,14.54-16.85,20-16.85,3.23,0,4.8,1.48,4.8,4.4,0,1.17-.76,4.32-2.33,9.39l-1.44,4.68-.72,2.33-11.46,37.48c-2.83,9.3-4.22,15.55-4.22,18.74-.06,5.35,2.12,10.48,6,14.16,4,3.95,10.74,5.92,20.23,5.93,3.31,.01,6.61-.23,9.88-.72l11.37-37.25,2.38-7.82,10.07-32.85,3.5-11.42c1.94-6.47,2.93-11.54,2.93-15.23-.03-6.3-2.28-11.37-6.87-15.1Z"/><path class="cls-3" d="M615.41,30.47c-4.43-3.74-10.06-5.76-15.86-5.67-19.5,0-39.02,14.62-58.55,43.86-3.19,4.72-6.37,9.83-9.53,15.33,1.89-5.93,3.42-11.37,4.68-16.27,2.24-8.99,3.36-16.21,3.37-21.66,0-6.56-2.16-11.73-6.47-15.55s-10.3-5.71-18-5.71c-2.63-.01-5.26,.18-7.86,.59l-8.9,29.16-1,3.19-7.73,25.17-7.56,24.89c-5.2,17.01,4.37,35.01,21.37,40.21,3.05,.93,6.22,1.41,9.41,1.41l1.35-5.13,1.39-5.25c5.49-14.47,14.29-32.28,26.38-53.44,3.28-5.75,6.38-10.74,9.39-15,7.87-11.23,14.54-16.85,20-16.85,3.23,0,4.8,1.48,4.8,4.4,0,1.17-.76,4.32-2.33,9.39l-1.44,4.68-.72,2.33-11.46,37.48c-2.83,9.3-4.22,15.55-4.22,18.74-.06,5.35,2.12,10.48,6,14.16,4,3.95,10.74,5.92,20.23,5.93,3.31,.01,6.61-.23,9.88-.72l11.37-37.25,2.38-7.82,10.07-32.85,3.5-11.42c1.94-6.47,2.93-11.54,2.93-15.23-.03-6.3-2.28-11.37-6.87-15.1Z"/><path class="cls-2" d="M257.14,76.39c-3.63,7.5-7.68,14.8-12.14,21.84-12.18,19.28-21.69,28.91-28.54,28.9-2.83,0-4.27-1.53-4.27-4.68,0-1.08,2-8.27,6-21.52l9.25-30.24,1.71-5.62c1.6-4.73,2.49-9.66,2.65-14.65,0-5.17-2.2-10-6.6-14.38-4.4-4.38-11.37-6.56-20.94-6.56-2.67,0-5.35,.17-8,.49l-24.49,80.62c-3.73,11.91-5.59,19.67-5.58,23.28-.14,5.69,1.79,11.23,5.44,15.59,3.6,4.36,9,6.52,16.22,6.52,5.2,0,10.36-.93,15.24-2.74,17.43-6.3,34.19-23.56,50.28-51.77l-17.57,57.16-11.46,37.48c-2.83,9.3-4.24,15.54-4.23,18.73-.06,5.35,2.11,10.48,6,14.16,4,3.95,10.74,5.92,20.22,5.93,3.31,.02,6.62-.22,9.89-.72l11.35-37.21,2.38-7.82L318.21,31.5h-44c-4.35,15.44-10.06,30.46-17.07,44.89Z"/><path class="cls-4" d="M257.14,76.39c-3.63,7.5-7.68,14.8-12.14,21.84-12.18,19.28-21.69,28.91-28.54,28.9-2.83,0-4.27-1.53-4.27-4.68,0-1.08,2-8.27,6-21.52l9.25-30.24,1.71-5.62c1.6-4.73,2.49-9.66,2.65-14.65,0-5.17-2.2-10-6.6-14.38-4.4-4.38-11.37-6.56-20.94-6.56-2.67,0-5.35,.17-8,.49l-24.49,80.62c-3.73,11.91-5.59,19.67-5.58,23.28-.14,5.69,1.79,11.23,5.44,15.59,3.6,4.36,9,6.52,16.22,6.52,5.2,0,10.36-.93,15.24-2.74,17.43-6.3,34.19-23.56,50.28-51.77l-17.57,57.16-11.46,37.48c-2.83,9.3-4.24,15.54-4.23,18.73-.06,5.35,2.11,10.48,6,14.16,4,3.95,10.74,5.92,20.22,5.93,3.31,.02,6.62-.22,9.89-.72l11.35-37.21,2.38-7.82L318.21,31.5h-44c-4.35,15.44-10.06,30.46-17.07,44.89Z"/></svg>