<svg width="20" height="17" viewBox="0 0 20 17" fill="none" xmlns="http://www.w3.org/2000/svg">
<path d="M17.9525 4.04571C17.9647 4.22203 17.9647 4.39834 17.9647 4.57628C17.9647 9.99818 13.8371 16.2513 6.28966 16.2513V16.248C4.06013 16.2513 1.8769 15.6126 0 14.4085C0.324193 14.4475 0.65001 14.467 0.97664 14.4678C2.82429 14.4694 4.61913 13.8495 6.07272 12.7079C4.31688 12.6746 2.77717 11.5298 2.23928 9.85843C2.85436 9.97706 3.48812 9.95268 4.09181 9.78774C2.17753 9.40098 0.800325 7.71908 0.800325 5.7658C0.800325 5.74793 0.800325 5.73086 0.800325 5.7138C1.37071 6.03149 2.00934 6.20781 2.6626 6.22731C0.859638 5.02235 0.30388 2.62382 1.39265 0.748537C3.47593 3.31201 6.54967 4.87041 9.84928 5.03535C9.51859 3.61021 9.97034 2.11681 11.0364 1.11498C12.689 -0.438544 15.2882 -0.358917 16.8418 1.29292C17.7607 1.11173 18.6415 0.774538 19.4475 0.29678C19.1412 1.24661 18.5001 2.05343 17.6437 2.56613C18.457 2.47025 19.2517 2.2525 20 1.92018C19.4491 2.74569 18.7552 3.46477 17.9525 4.04571Z" fill="#BEC4C6"/>
</svg>
